<svg xmlns="http://www.w3.org/2000/svg" viewBox="0 0 289.82 53.06"><defs><style>.cls-1{fill:#868686;}.cls-2{fill:#001689;}.cls-3{fill:#80bc00;}</style></defs><g id="Capa_2" data-name="Capa 2"><g id="Layer_1" data-name="Layer 1"><path class="cls-1" d="M146.31,22.55c-.1,5.9,3,11.27,9.22,11.27a8.68,8.68,0,0,0,9-7.47h1.85c-1,5.86-4.88,9.08-10.84,9.08-7.32,0-11.18-5.76-11.08-12.69-.1-6.88,3.52-13.56,11.08-13.56,7.86,0,11.38,6.19,11,13.37Zm18.4-1.61c-.1-5.28-3.42-10.16-9.18-10.16-5.56,0-8.83,5.18-9.22,10.16Z"/><path class="cls-1" d="M170.91,9.76h1.86v5.37h.09c1.27-3.76,5.07-6,9-6,8.84,0,8.93,7.07,8.93,10.15V34.85h-1.85V19c0-2.58-.29-8.2-7.12-8.2-5.62,0-9,4.35-9,10.5V34.85h-1.86Z"/><rect class="cls-1" x="196.68" width="1.86" height="34.85"/><path class="cls-1" d="M222.94,30.21c0,1.46,0,3,1.66,3a10,10,0,0,0,1.37-.15v1.56a8.47,8.47,0,0,1-1.52.2c-2.93,0-3.37-1.61-3.37-3.66V29.87H221c-1.17,3-4.54,5.56-9.33,5.56s-8.39-1.8-8.39-7.07c0-5.86,5.08-7.08,9.23-7.42,8.29-.59,8.63-1.13,8.63-5.23,0-1.12-1.26-4.93-7-4.93-4.49,0-7.46,2.35-7.71,6.69h-1.85c.24-5.51,3.66-8.29,9.56-8.29,4.4,0,8.79,1.36,8.79,6.53Zm-1.86-9.61c-1.46,1.66-5.46,1.46-9.07,1.95-4.39.49-6.89,2-6.89,5.81,0,3,2.2,5.46,6.59,5.46,8.45,0,9.37-7.22,9.37-8.53Z"/><path class="cls-1" d="M247.74,17.52c-.35-4.44-4-6.74-8.5-6.74-6.29,0-9.66,5.57-9.66,11.28,0,6.78,3.17,11.76,9.66,11.76A8.63,8.63,0,0,0,248,26h1.85c-.82,6-5.17,9.42-10.59,9.42-8.15,0-11.52-6.39-11.52-13.37s4.1-12.88,11.52-12.88c5.42,0,9.81,2.63,10.35,8.34Z"/><path class="cls-1" d="M254.91,22.55c-.1,5.9,3,11.27,9.23,11.27a8.66,8.66,0,0,0,9-7.47H275c-1,5.86-4.88,9.08-10.83,9.08-7.33,0-11.18-5.76-11.08-12.69-.1-6.88,3.51-13.56,11.08-13.56,7.85,0,11.37,6.19,11,13.37Zm18.4-1.61c-.1-5.28-3.42-10.16-9.17-10.16-5.57,0-8.84,5.18-9.23,10.16Z"/><path class="cls-2" d="M61.19,23.47c0-4.44,1.75-8.1,6.83-8.1a12.33,12.33,0,0,1,2.49.25V9.18A5.08,5.08,0,0,0,69,8.93a8.92,8.92,0,0,0-8.06,5.37h-.09V9.62H54.26v19q3.3-.09,6.93-.11ZM18.43,14.25h4.78V9.62H18.43V8.1c0-2.1.78-2.88,2.64-2.88a21,21,0,0,1,2.53.15V.19C22.43.14,21.17,0,19.94,0,14.28,0,11.5,3.22,11.5,7.66v2H7.35v4.63H11.5V34.6a44,44,0,0,1,6.93-2.24ZM32.1,27.67c0-2.54,1.95-3.27,4.1-3.7s4.58-.44,5.76-1.47v2.59a6.32,6.32,0,0,1-1.28,4.17c2.52-.19,5.25-.36,8.2-.49V16.1c0-6.05-6-7.17-11.07-7.17-5.66,0-11.47,2-11.86,8.44h6.93c.24-2.73,1.95-3.8,4.58-3.8C39.9,13.57,42,14,42,17c0,2.83-4,2.69-8.2,3.32s-8.59,2-8.59,7.66a8.14,8.14,0,0,0,.52,3c2-.31,4.44-.65,7.32-1a2.88,2.88,0,0,1-.91-2.3m101.37,4.74a10.68,10.68,0,0,0,.25,1.57c1.9.27,3.84.56,5.79.87H141c-.64-1-.88-3.32-.88-5.62V16.1c0-6.05-6.05-7.17-11.08-7.17-5.66,0-11.47,2-11.86,8.44h6.93c.25-2.73,2-3.8,4.59-3.8,2.44,0,4.49.43,4.49,3.41,0,2.83-4,2.69-8.2,3.32s-8.59,2-8.59,7.66a7.77,7.77,0,0,0,.93,3.87q7,.83,14.55,1.89a8.65,8.65,0,0,0,1.6-1.31m-5.9-1.52c-2.25,0-4.25-.63-4.25-3.22s2-3.27,4.1-3.7,4.59-.44,5.76-1.47v2.59c0,1.51-.2,5.8-5.61,5.8M80.37,20.2c0-4.92,3.32-5.8,4.68-5.8,4.39,0,4.2,3.37,4.2,6.29v8.6c2.26.14,4.56.3,6.93.48v-9c0-3.17.73-6.39,4.64-6.39s4.25,2.78,4.25,6.14v10c2.26.22,4.57.45,6.93.71V18c0-6.54-3.86-9-9.23-9a9.15,9.15,0,0,0-7.61,4.2c-1.37-3-4.2-4.2-7.37-4.2A9.13,9.13,0,0,0,80.07,13H80V9.62H73.44v19c2.24.06,4.54.14,6.93.24Z"/><path class="cls-3" d="M.68,53.06c-4.8-13,17.26-17.56,17.26-17.56s44-11.82,140.5,5.82c0,0,74.95,17,131.37,5.64h0C234,59.7,158.29,44.45,158.29,44.45,61.08,29.12,17.61,42,17.61,42S-.71,46.71.68,53.06"/></g></g></svg>